<svg width="712" height="382" viewBox="0 0 712 382" fill="none" xmlns="http://www.w3.org/2000/svg">
<g clip-path="url(#clip0_7086_27324)">
<path fill-rule="evenodd" clip-rule="evenodd" d="M691.513 70.2617V259.459H712.007V308.862H691.513V359.73H619.423V308.862H533.424V259.459L595.945 70.2617H691.52H691.513ZM619.416 259.459V136.316L587.33 259.459H619.416Z" fill="#1A847C"/>
<path fill-rule="evenodd" clip-rule="evenodd" d="M356.004 52.5312C401.371 52.5312 442.449 70.9216 472.183 100.656C501.917 130.39 520.307 171.467 520.307 216.835C520.307 262.202 501.917 303.273 472.183 333.014C442.449 362.748 401.371 381.138 356.004 381.138C310.636 381.138 269.565 362.748 239.825 333.014C210.091 303.28 191.7 262.202 191.7 216.835C191.7 171.467 210.091 130.39 239.825 100.656C269.559 70.9216 310.636 52.5312 356.004 52.5312ZM420.346 152.486C403.881 136.02 381.131 125.838 355.997 125.838C330.862 125.838 308.113 136.02 291.648 152.486C275.182 168.951 265 191.7 265 216.835C265 241.969 275.182 264.718 291.648 281.184C308.113 297.649 330.862 307.831 355.997 307.831C381.131 307.831 403.881 297.649 420.346 281.184C436.811 264.718 446.993 241.969 446.993 216.835C446.993 191.7 436.811 168.951 420.346 152.486Z" fill="#E95D53"/>
<path fill-rule="evenodd" clip-rule="evenodd" d="M158.095 70.2617V259.459H178.59V308.862H158.095V359.73H86.0051V308.862H0V259.459L62.5204 70.2617H158.095ZM85.9982 259.459V136.316L53.913 259.459H85.9982Z" fill="#1A847C"/>
<path fill-rule="evenodd" clip-rule="evenodd" d="M409.147 267.07L411.326 289.097C395.995 300.846 376.821 307.831 356.004 307.831C355.742 307.831 355.481 307.831 355.213 307.831L359.448 265.406L409.147 267.077V267.07Z" fill="black"/>
<path fill-rule="evenodd" clip-rule="evenodd" d="M349.225 267.069L353.247 307.789C332.01 307.157 312.595 299.25 297.422 286.477L299.526 265.398L349.225 267.069Z" fill="black"/>
<path fill-rule="evenodd" clip-rule="evenodd" d="M267.53 143.766C265.124 126.544 266.664 111.413 267.187 101.54C281.342 99.8833 293.256 98.1783 307.597 96.5009C322.117 94.7959 336.692 93.1184 351.391 91.3516C352.931 91.5647 354.464 91.7366 356.017 91.9153C357.537 91.7366 359.07 91.5647 360.589 91.3516C375.302 93.1115 389.897 94.7959 404.403 96.5009C418.744 98.1852 430.658 99.8833 444.855 101.54C445.336 111.406 446.876 126.544 444.47 143.766C438.647 185.455 433.573 227.358 430.315 269.384C427.331 273.599 423.997 277.545 420.36 281.182C403.894 297.647 381.145 307.829 356.011 307.829C330.876 307.829 308.127 297.647 291.661 281.182C288.004 277.524 284.649 273.55 281.658 269.309C278.407 227.31 273.36 185.428 267.537 143.759L267.53 143.766Z" fill="#FEFEFE"/>
<path d="M356.003 127.968C374.035 127.968 388.652 108.955 388.652 85.5015C388.652 62.048 374.035 43.0352 356.003 43.0352C337.972 43.0352 323.354 62.048 323.354 85.5015C323.354 108.955 337.972 127.968 356.003 127.968Z" fill="#DC977D"/>
<path fill-rule="evenodd" clip-rule="evenodd" d="M355.852 117.157L323.856 98.5742L335.646 146.375L356.003 223.347L388.143 99.1448L355.852 117.157Z" fill="#D1E6E5"/>
<path fill-rule="evenodd" clip-rule="evenodd" d="M356.003 117.156L362.644 124.781L357.323 132.474L363.765 192.12L356.003 223.339L348.234 192.12L354.717 132.467L349.355 124.781L356.003 117.156Z" fill="#1A847C"/>
<path fill-rule="evenodd" clip-rule="evenodd" d="M356.003 117.158L344.447 130.591L319.903 106.818L322.475 97.2891L356.003 117.158Z" fill="#1A847C" fill-opacity="0.15"/>
<path fill-rule="evenodd" clip-rule="evenodd" d="M356.003 117.158L367.553 130.591L392.097 106.818L389.525 97.2891L356.003 117.158Z" fill="#1A847C" fill-opacity="0.15"/>
<path fill-rule="evenodd" clip-rule="evenodd" d="M323.719 91.918L303.314 101.68L306.091 129.001L329.659 136.791L309.55 149.495L356.003 223.346L323.719 91.918Z" fill="#E6E6E6"/>
<path fill-rule="evenodd" clip-rule="evenodd" d="M388.281 91.918L408.693 101.68L405.908 129.001L382.348 136.791L402.45 149.495L356.003 223.346L388.281 91.918Z" fill="#E6E6E6"/>
<path fill-rule="evenodd" clip-rule="evenodd" d="M179.504 43.0089C178.04 45.0782 174.465 43.9232 173.028 43.3457L168.002 5.3206C167.961 3.93874 168.305 2.61876 168.944 1.45003C169.529 0.37754 170.69 -0.172453 171.894 0.054419C173.097 0.281291 173.977 1.2094 174.135 2.41939L177.208 25.691L179.497 43.0089H179.504Z" fill="#F6B096"/>
<path fill-rule="evenodd" clip-rule="evenodd" d="M171.68 38.6508C170.642 40.8577 166.944 40.5895 165.438 40.3764L153.379 6.60685C153.063 5.26624 153.201 3.94626 153.709 2.71565C154.156 1.62941 155.174 0.969421 156.343 0.996921C157.518 1.02442 158.494 1.73254 158.893 2.8394L166.236 23.3885L171.687 38.6508H171.68Z" fill="#F6B096"/>
<path fill-rule="evenodd" clip-rule="evenodd" d="M165.005 40.5128C164.51 42.7265 161.107 43.2284 159.698 43.3384L141.781 14.9588C140.97 13.2882 141.101 11.535 141.891 9.8782C142.228 9.17695 142.868 8.74383 143.651 8.69571C144.428 8.64759 145.123 9.00508 145.535 9.66507L156.975 27.7873L165.005 40.5128Z" fill="#F6B096"/>
<path fill-rule="evenodd" clip-rule="evenodd" d="M160.536 54.2477C160.069 56.2758 156.94 56.7158 155.641 56.8189L135.154 23.9087C134.46 22.465 134.59 21.0419 135.264 19.6806C135.608 18.9863 136.254 18.56 137.031 18.5188C137.808 18.4775 138.495 18.8419 138.901 19.495L149.199 36.0361L160.536 54.2477Z" fill="#F6B096"/>
<path fill-rule="evenodd" clip-rule="evenodd" d="M194.257 33.1504C189.397 41.2628 188.62 52.9982 181.8 55.4319C177.606 56.9307 173.076 54.9988 171.694 51.1214C170.305 47.2439 172.588 42.8784 176.781 41.3796C178.899 40.6234 181.099 40.7403 182.941 41.5446L185.141 38.0384C184.667 34.8485 186.887 30.1735 191.164 29.0392C192.277 28.7435 193.398 29.1285 194.092 30.0567C194.787 30.9779 194.849 32.1604 194.257 33.1504Z" fill="#F6B096"/>
<path fill-rule="evenodd" clip-rule="evenodd" d="M149.639 46.8188C147.212 38.9608 155.799 33.2133 160.9 31.3915C164.166 30.2228 167.762 30.0234 171.515 30.2503C175.008 30.0096 178.5 32.2646 180.006 35.9702C180.026 36.0114 180.047 36.0527 180.061 36.0939L183.106 44.6257C184.921 49.6994 182.941 55.0893 178.713 56.6018L163.712 61.9642C159.484 63.4767 154.534 60.5617 152.726 55.4812L149.784 47.2382L149.68 46.9494C149.667 46.9082 149.653 46.8669 149.646 46.8188H149.639Z" fill="#F6B096"/>
<path fill-rule="evenodd" clip-rule="evenodd" d="M156.92 46.6785C164.558 44.9873 169.357 51.1884 170.505 54.4128C169.357 51.1884 168.759 43.7223 176.115 39.8242L156.92 46.6785Z" fill="#DC977D"/>
<path fill-rule="evenodd" clip-rule="evenodd" d="M191.061 51.3398C184.66 52.6667 178.369 54.2961 172.34 56.5992C166.311 58.9091 160.543 61.8997 154.892 65.1928C155.497 66.7671 156.102 68.3484 156.707 69.9227C157.312 71.4971 157.917 73.0783 158.515 74.6527C164.166 71.3596 169.941 68.369 175.97 66.0659C181.999 63.7559 188.283 62.1266 194.69 60.7997C194.085 59.2254 193.48 57.6441 192.882 56.0698C192.277 54.4954 191.672 52.9142 191.067 51.3398H191.061Z" fill="#D1E6E5"/>
<path fill-rule="evenodd" clip-rule="evenodd" d="M291.95 85.5023C303.974 92.5903 344.591 94.7147 341.882 102.58C337.95 114.013 228.343 187.973 210.922 186.11C193.501 184.253 162.701 96.4471 155.332 74.0143C167.376 58.6901 183.147 57.5352 194.904 57.5352C207.821 82.7454 212.022 94.9278 224.411 120.75L272.824 83.9417C278.365 79.7274 285.955 81.9617 291.95 85.4954V85.5023Z" fill="#FEFEFE"/>
<path fill-rule="evenodd" clip-rule="evenodd" d="M165.933 75.4387C165.417 73.8987 163.747 73.0669 162.207 73.5825C160.667 74.0981 159.835 75.7687 160.351 77.3087C160.866 78.8487 162.537 79.6805 164.077 79.1649C165.617 78.6493 166.449 76.9787 165.933 75.4387ZM168.999 84.5892C168.484 83.0492 166.813 82.2174 165.273 82.733C163.733 83.2486 162.901 84.9192 163.417 86.4592C163.932 87.9992 165.603 88.831 167.143 88.3154C168.683 87.7998 169.515 86.1292 168.999 84.5892Z" fill="#999999"/>
<path fill-rule="evenodd" clip-rule="evenodd" d="M532.496 43.0089C533.96 45.0782 537.535 43.9232 538.972 43.3457L543.998 5.3206C544.039 3.93874 543.695 2.61876 543.056 1.45003C542.472 0.37754 541.31 -0.172453 540.107 0.054419C538.904 0.281291 538.024 1.2094 537.865 2.41939L534.792 25.691L532.503 43.0089H532.496Z" fill="#F6B096"/>
<path fill-rule="evenodd" clip-rule="evenodd" d="M540.327 38.6508C541.365 40.8577 545.064 40.5895 546.569 40.3764L558.628 6.60685C558.944 5.26624 558.806 3.94626 558.298 2.71565C557.851 1.62941 556.833 0.969421 555.665 0.996921C554.496 1.02442 553.513 1.73254 553.114 2.8394L545.772 23.3885L540.32 38.6508H540.327Z" fill="#F6B096"/>
<path fill-rule="evenodd" clip-rule="evenodd" d="M547.002 40.5128C547.497 42.7265 550.9 43.2284 552.31 43.3384L570.226 14.9588C571.037 13.2882 570.906 11.535 570.116 9.8782C569.779 9.17695 569.133 8.74383 568.356 8.69571C567.579 8.64759 566.885 9.00508 566.472 9.66507L555.032 27.7873L547.002 40.5128Z" fill="#F6B096"/>
<path fill-rule="evenodd" clip-rule="evenodd" d="M551.464 54.2477C551.932 56.2758 555.06 56.7158 556.359 56.8189L576.847 23.9087C577.541 22.465 577.41 21.0419 576.737 19.6806C576.393 18.9863 575.747 18.56 574.97 18.5188C574.193 18.4775 573.505 18.8419 573.1 19.495L562.801 36.0361L551.464 54.2477Z" fill="#F6B096"/>
<path fill-rule="evenodd" clip-rule="evenodd" d="M517.743 33.1504C522.603 41.2628 523.38 52.9982 530.2 55.4319C534.394 56.9307 538.924 54.9988 540.306 51.1214C541.695 47.2439 539.412 42.8784 535.219 41.3796C533.101 40.6234 530.901 40.7403 529.059 41.5446L526.859 38.0384C527.333 34.8485 525.113 30.1735 520.836 29.0392C519.723 28.7435 518.602 29.1285 517.908 30.0567C517.213 30.9779 517.151 32.1604 517.743 33.1504Z" fill="#F6B096"/>
<path fill-rule="evenodd" clip-rule="evenodd" d="M562.368 46.8188C564.794 38.9608 556.208 33.2133 551.106 31.3915C547.841 30.2228 544.245 30.0234 540.492 30.2503C536.999 30.0096 533.507 32.2646 532.001 35.9702C531.98 36.0114 531.96 36.0527 531.946 36.0939L528.9 44.6257C527.085 49.6994 529.065 55.0893 533.294 56.6018L548.295 61.9642C552.523 63.4767 557.473 60.5617 559.281 55.4812L562.223 47.2382L562.326 46.9494C562.34 46.9082 562.354 46.8669 562.361 46.8188H562.368Z" fill="#F6B096"/>
<path fill-rule="evenodd" clip-rule="evenodd" d="M555.087 46.6785C547.449 44.9873 542.651 51.1884 541.503 54.4128C542.658 51.1884 543.249 43.7223 535.893 39.8242L555.087 46.6785Z" fill="#DC977D"/>
<path fill-rule="evenodd" clip-rule="evenodd" d="M520.94 51.3398C527.34 52.6667 533.631 54.2961 539.66 56.5992C545.689 58.9091 551.457 61.8997 557.108 65.1928C556.503 66.7671 555.898 68.3484 555.293 69.9227C554.688 71.4971 554.083 73.0783 553.485 74.6527C547.834 71.3596 542.059 68.369 536.03 66.0659C530.001 63.7559 523.717 62.1266 517.31 60.7997C517.915 59.2254 518.52 57.6441 519.118 56.0698C519.723 54.4954 520.328 52.9142 520.933 51.3398H520.94Z" fill="#D1E6E5"/>
<path fill-rule="evenodd" clip-rule="evenodd" d="M420.05 85.5023C408.026 92.5903 367.409 94.7147 370.118 102.58C374.05 114.013 483.657 187.973 501.078 186.11C518.499 184.253 549.298 96.4471 556.668 74.0143C544.623 58.6901 528.852 57.5352 517.096 57.5352C504.178 82.7454 499.978 94.9278 487.589 120.75L439.176 83.9417C433.635 79.7274 426.045 81.9617 420.05 85.4954V85.5023Z" fill="#FEFEFE"/>
<path fill-rule="evenodd" clip-rule="evenodd" d="M546.067 75.4387C546.583 73.8987 548.253 73.0669 549.793 73.5825C551.333 74.0981 552.165 75.7687 551.65 77.3087C551.134 78.8487 549.463 79.6805 547.923 79.1649C546.383 78.6493 545.551 76.9787 546.067 75.4387ZM543.001 84.5892C543.517 83.0492 545.187 82.2174 546.727 82.733C548.267 83.2486 549.099 84.9192 548.583 86.4592C548.068 87.9992 546.397 88.831 544.857 88.3154C543.317 87.7998 542.485 86.1292 543.001 84.5892Z" fill="#999999"/>
<path d="M419.555 162.453H419.548C418.751 162.453 418.104 163.099 418.104 163.897V164.158C418.104 164.955 418.751 165.602 419.548 165.602H419.555C420.352 165.602 420.999 164.955 420.999 164.158V163.897C420.999 163.099 420.352 162.453 419.555 162.453Z" fill="#1A847C"/>
<path d="M421.604 164.398H417.493V180.142H421.604V164.398Z" fill="#333333"/>
<path fill-rule="evenodd" clip-rule="evenodd" d="M421.645 170.684H386.734V215.59H422.374V170.684H421.645ZM388.185 172.519H420.91V213.755H388.185V172.519Z" fill="#E6E6E6"/>
<path d="M423.824 170.684H385.27V182.667H423.824V170.684Z" fill="#E6E6E6"/>
<path d="M420.078 168.145H419.019V181.427H420.078V168.145Z" fill="#1A1A1A"/>
<path fill-rule="evenodd" clip-rule="evenodd" d="M287.997 176.151L290.506 176.79C294.728 177.87 299.004 177.127 302.489 175.058C305.982 172.989 308.684 169.599 309.763 165.378L319.374 127.827L316.549 127.105L306.937 164.656C306.057 168.094 303.851 170.864 300.998 172.549C298.151 174.24 294.659 174.845 291.221 173.965L288.712 173.325L287.99 176.151H287.997Z" fill="#808080"/>
<path fill-rule="evenodd" clip-rule="evenodd" d="M290.176 172.589L288.121 172.067C286.766 171.723 285.378 172.541 285.034 173.895C284.69 175.25 285.508 176.639 286.863 176.982L288.918 177.505C290.273 177.849 291.661 177.03 292.005 175.676C292.349 174.322 291.531 172.933 290.176 172.589Z" fill="#1A847C"/>
<path fill-rule="evenodd" clip-rule="evenodd" d="M318.528 176.151L316.019 176.79C311.798 177.87 307.522 177.127 304.036 175.058C300.544 172.989 297.842 169.599 296.762 165.378L287.151 127.827L289.977 127.105L299.588 164.656C300.468 168.094 302.675 170.864 305.528 172.549C308.374 174.24 311.867 174.845 315.304 173.965L317.813 173.325L318.535 176.151H318.528Z" fill="#B3B3B3"/>
<path fill-rule="evenodd" clip-rule="evenodd" d="M316.342 172.589L318.398 172.067C319.752 171.723 321.141 172.541 321.485 173.895C321.828 175.25 321.01 176.639 319.656 176.982L317.6 177.505C316.246 177.849 314.857 177.03 314.513 175.676C314.17 174.322 314.988 172.933 316.342 172.589Z" fill="#1A847C"/>
<path fill-rule="evenodd" clip-rule="evenodd" d="M290.85 126.762C290.85 127.972 289.874 128.949 288.664 128.949C287.454 128.949 286.478 127.972 286.478 126.762C286.478 122.115 288.361 117.908 291.407 114.855C294.452 111.81 298.66 109.926 303.314 109.926C307.968 109.926 312.169 111.81 315.222 114.855C318.267 117.901 320.151 122.108 320.151 126.762C320.151 127.972 319.175 128.949 317.965 128.949C316.755 128.949 315.778 127.972 315.778 126.762C315.778 123.318 314.383 120.204 312.128 117.949C309.873 115.694 306.759 114.298 303.314 114.298C299.87 114.298 296.756 115.694 294.501 117.949C292.246 120.204 290.85 123.318 290.85 126.762Z" fill="#1A847C"/>
<path d="M305.5 106.928C305.5 105.721 304.522 104.742 303.314 104.742C302.107 104.742 301.128 105.721 301.128 106.928V110.909C301.128 112.116 302.107 113.095 303.314 113.095C304.522 113.095 305.5 112.116 305.5 110.909V106.928Z" fill="#1A847C"/>
<path fill-rule="evenodd" clip-rule="evenodd" d="M301.829 106.789C301.829 106.72 298.942 81.6133 353.171 81.8058V84.707C302.159 84.5214 304.71 106.459 304.717 106.521L301.823 106.782L301.829 106.789Z" fill="#1A847C"/>
<path fill-rule="evenodd" clip-rule="evenodd" d="M406.796 138.18C409.855 138.18 412.337 140.662 412.337 143.721C412.337 146.78 409.855 149.262 406.796 149.262C403.736 149.262 401.254 146.78 401.254 143.721C401.254 140.662 403.736 138.18 406.796 138.18Z" fill="#CCCCCC"/>
<path fill-rule="evenodd" clip-rule="evenodd" d="M406.149 138.18C409.208 138.18 411.69 140.662 411.69 143.721C411.69 146.78 409.208 149.262 406.149 149.262C403.09 149.262 400.608 146.78 400.608 143.721C400.608 140.662 403.09 138.18 406.149 138.18Z" fill="#E6E6E6"/>
<path fill-rule="evenodd" clip-rule="evenodd" d="M406.252 140.117C408.239 140.117 409.848 141.726 409.848 143.713C409.848 145.7 408.239 147.308 406.252 147.308C404.265 147.308 402.657 145.7 402.657 143.713C402.657 141.726 404.265 140.117 406.252 140.117Z" fill="#999999"/>
<path fill-rule="evenodd" clip-rule="evenodd" d="M355.192 84.3202C354.388 84.3202 353.742 83.6671 353.742 82.8696C353.742 82.0721 354.395 81.419 355.192 81.419C367.43 81.3777 376.718 82.6015 383.771 84.5196C392.874 86.9945 398.346 90.6382 401.625 94.2201C407.002 100.077 406.816 106.341 406.617 113.154C406.582 114.329 406.548 115.525 406.548 116.99V139.863C406.548 140.667 405.895 141.32 405.09 141.32C404.286 141.32 403.633 140.667 403.633 139.863V116.99C403.633 115.835 403.674 114.439 403.715 113.071C403.894 106.877 404.066 101.177 399.487 96.1863C396.517 92.9482 391.492 89.6345 383.008 87.3245C376.161 85.4614 367.12 84.2721 355.192 84.3133V84.3202Z" fill="#1A847C"/>
<path fill-rule="evenodd" clip-rule="evenodd" d="M404.231 140.117C406.218 140.117 407.826 141.726 407.826 143.713C407.826 145.7 406.218 147.308 404.231 147.308C402.244 147.308 400.635 145.7 400.635 143.713C400.635 141.726 402.244 140.117 404.231 140.117Z" fill="#CCCCCC"/>
<path fill-rule="evenodd" clip-rule="evenodd" d="M328.112 302.164L325.939 302.748C326.785 303.044 327.638 303.326 328.497 303.601L328.112 302.164Z" fill="#E6E6E6"/>
<path d="M360.85 233.402H351.15V235.74H360.85V233.402Z" fill="#E6E6E6"/>
<path fill-rule="evenodd" clip-rule="evenodd" d="M355.997 231.23C357.846 231.23 359.338 232.729 359.338 234.572C359.338 236.414 357.839 237.913 355.997 237.913C354.154 237.913 352.656 236.414 352.656 234.572C352.656 232.729 354.154 231.23 355.997 231.23Z" fill="#999999"/>
<path d="M360.85 283.828H351.15V286.166H360.85V283.828Z" fill="#E6E6E6"/>
<path fill-rule="evenodd" clip-rule="evenodd" d="M355.997 281.656C357.846 281.656 359.338 283.155 359.338 284.997C359.338 286.84 357.839 288.339 355.997 288.339C354.154 288.339 352.656 286.84 352.656 284.997C352.656 283.155 354.154 281.656 355.997 281.656Z" fill="#999999"/>
<path fill-rule="evenodd" clip-rule="evenodd" d="M400.271 70.543C405.035 70.543 408.899 74.7298 408.899 79.8997C408.899 85.0697 405.035 89.2565 400.271 89.2565C395.507 89.2565 391.643 85.0697 391.643 79.8997C391.643 74.7298 395.507 70.543 400.271 70.543Z" fill="#F6B096"/>
<path fill-rule="evenodd" clip-rule="evenodd" d="M400.271 75.0117C402.76 75.0117 404.774 77.1979 404.774 79.8998C404.774 82.6016 402.76 84.7878 400.271 84.7878C397.782 84.7878 395.768 82.6016 395.768 79.8998C395.768 77.1979 397.782 75.0117 400.271 75.0117Z" fill="#DC977D"/>
<path fill-rule="evenodd" clip-rule="evenodd" d="M311.736 70.543C316.5 70.543 320.364 74.7298 320.364 79.8997C320.364 85.0697 316.5 89.2565 311.736 89.2565C306.972 89.2565 303.108 85.0697 303.108 79.8997C303.108 74.7298 306.972 70.543 311.736 70.543Z" fill="#F6B096"/>
<path fill-rule="evenodd" clip-rule="evenodd" d="M311.736 75.0117C314.225 75.0117 316.239 77.1979 316.239 79.8998C316.239 82.6016 314.225 84.7878 311.736 84.7878C309.247 84.7878 307.233 82.6016 307.233 79.8998C307.233 77.1979 309.247 75.0117 311.736 75.0117Z" fill="#DC977D"/>
<path fill-rule="evenodd" clip-rule="evenodd" d="M342.316 120.715C330.958 109.66 314.067 102.359 314.067 102.359V64.9592C314.067 64.9592 312.98 16.6767 355.034 21.2554C397.088 16.6767 398.174 64.9592 398.174 64.9592V102.359C398.174 102.359 380.657 111.585 370.049 120.749C365.725 119.484 361.002 118.79 356.12 118.79C351.239 118.79 346.606 119.47 342.316 120.715Z" fill="#F6B096"/>
<path fill-rule="evenodd" clip-rule="evenodd" d="M342.316 120.715C339.38 117.855 336.073 115.25 332.787 112.953C332.725 112.156 332.698 111.351 332.698 110.54C332.698 95.388 343.182 83.1094 356.121 83.1094C369.059 83.1094 379.543 95.3948 379.543 110.54C379.543 111.606 379.488 112.658 379.385 113.689C376.092 115.937 372.833 118.343 370.049 120.75C365.725 119.485 361.002 118.79 356.121 118.79C351.239 118.79 346.606 119.471 342.316 120.715Z" fill="#E6E6E6"/>
<path fill-rule="evenodd" clip-rule="evenodd" d="M389.821 33.878C389.821 33.878 384.582 43.9635 385.703 52.5502C386.824 61.137 395.589 71.69 393.451 82.3323C391.313 92.9747 389.663 94.7484 389.663 94.7484L399.611 86.5329C399.611 86.5329 404.465 51.024 389.814 33.8711L389.821 33.878Z" fill="#E6E6E6"/>
<path fill-rule="evenodd" clip-rule="evenodd" d="M321.086 33.878C321.086 33.878 326.324 43.9635 325.204 52.5502C324.083 61.137 315.318 71.69 317.456 82.3323C319.594 92.9747 321.244 94.7484 321.244 94.7484L311.296 86.5329C311.296 86.5329 306.442 51.024 321.093 33.8711L321.086 33.878Z" fill="#E6E6E6"/>
<path fill-rule="evenodd" clip-rule="evenodd" d="M363.27 79.6445C362.315 81.762 357.248 83.8451 355.701 84.4363C354.154 83.8451 349.087 81.762 348.132 79.6445C350.359 80.2358 352.944 80.5795 355.701 80.5795C358.458 80.5795 361.043 80.2426 363.27 79.6445Z" fill="#DC977D"/>
<path fill-rule="evenodd" clip-rule="evenodd" d="M364.109 56.0625C364.109 56.0625 354.202 68.4098 363.27 79.6434L361.744 80.5097C356.107 71.8679 358.032 63.5905 364.109 56.0625Z" fill="#DC977D"/>
<path fill-rule="evenodd" clip-rule="evenodd" d="M340.019 46.389C342.68 44.8421 345.87 45.0277 348.283 46.6021L336.108 53.6764C335.943 50.8027 337.359 47.9358 340.019 46.3958V46.389Z" fill="#E6E6E6"/>
<path fill-rule="evenodd" clip-rule="evenodd" d="M375.755 46.389C373.094 44.8421 369.904 45.0277 367.491 46.6021L379.667 53.6764C379.832 50.8027 378.415 47.9358 375.755 46.3958V46.389Z" fill="#E6E6E6"/>
<path fill-rule="evenodd" clip-rule="evenodd" d="M342.687 57.1484C346.386 57.1484 349.383 60.8746 349.383 65.474C349.383 70.0733 346.386 73.7995 342.687 73.7995C338.988 73.7995 335.991 70.0733 335.991 65.474C335.991 60.8746 338.988 57.1484 342.687 57.1484Z" fill="white"/>
<path fill-rule="evenodd" clip-rule="evenodd" d="M340.961 58.4141C339.201 58.4141 337.778 59.8372 337.778 61.5971C337.778 63.3571 339.201 64.7802 340.961 64.7802C342.721 64.7802 344.144 63.3571 344.144 61.5971C344.144 59.8372 342.721 58.4141 340.961 58.4141Z" fill="#00CCFF"/>
<path fill-rule="evenodd" clip-rule="evenodd" d="M343.017 58.1445C342.254 58.1445 341.635 58.7633 341.635 59.5264C341.635 60.2895 342.254 60.9082 343.017 60.9082C343.78 60.9082 344.398 60.2895 344.398 59.5264C344.398 58.7633 343.78 58.1445 343.017 58.1445Z" fill="white"/>
<path fill-rule="evenodd" clip-rule="evenodd" d="M340.088 62.5273C339.607 62.5273 339.215 62.9192 339.215 63.4005C339.215 63.8817 339.607 64.2736 340.088 64.2736C340.569 64.2736 340.961 63.8817 340.961 63.4005C340.961 62.9192 340.569 62.5273 340.088 62.5273Z" fill="white"/>
<path fill-rule="evenodd" clip-rule="evenodd" d="M340.961 59.7266C339.999 59.7266 339.222 60.5034 339.222 61.4659C339.222 62.4284 339.999 63.2053 340.961 63.2053C341.924 63.2053 342.7 62.4284 342.7 61.4659C342.7 60.5034 341.924 59.7266 340.961 59.7266Z" fill="black"/>
<path fill-rule="evenodd" clip-rule="evenodd" d="M370.744 57.1484C374.442 57.1484 377.44 60.8746 377.44 65.474C377.44 70.0733 374.442 73.7995 370.744 73.7995C367.045 73.7995 364.047 70.0733 364.047 65.474C364.047 60.8746 367.045 57.1484 370.744 57.1484Z" fill="white"/>
<path fill-rule="evenodd" clip-rule="evenodd" d="M368.908 58.4141C367.148 58.4141 365.725 59.8372 365.725 61.5971C365.725 63.3571 367.148 64.7802 368.908 64.7802C370.668 64.7802 372.091 63.3571 372.091 61.5971C372.091 59.8372 370.668 58.4141 368.908 58.4141Z" fill="#00CCFF"/>
<path fill-rule="evenodd" clip-rule="evenodd" d="M370.963 58.1445C370.2 58.1445 369.582 58.7633 369.582 59.5264C369.582 60.2895 370.2 60.9082 370.963 60.9082C371.727 60.9082 372.345 60.2895 372.345 59.5264C372.345 58.7633 371.727 58.1445 370.963 58.1445Z" fill="white"/>
<path fill-rule="evenodd" clip-rule="evenodd" d="M368.035 62.5234C367.554 62.5234 367.162 62.9153 367.162 63.3966C367.162 63.8778 367.554 64.2697 368.035 64.2697C368.516 64.2697 368.908 63.8778 368.908 63.3966C368.908 62.9153 368.516 62.5234 368.035 62.5234Z" fill="white"/>
<path fill-rule="evenodd" clip-rule="evenodd" d="M368.908 59.7266C367.945 59.7266 367.168 60.5034 367.168 61.4659C367.168 62.4284 367.945 63.2053 368.908 63.2053C369.87 63.2053 370.647 62.4284 370.647 61.4659C370.647 60.5034 369.87 59.7266 368.908 59.7266Z" fill="black"/>
<path fill-rule="evenodd" clip-rule="evenodd" d="M361.964 65.2625C361.771 65.8056 361.62 66.3556 361.517 66.9262C361.421 67.4762 361.373 68.04 361.366 68.6174C361.283 68.5487 361.194 68.4799 361.112 68.4181C360.087 67.6687 358.836 67.2425 357.516 67.2425C356.423 67.2425 355.371 67.5381 354.45 68.0675C354.216 68.205 353.996 68.3562 353.783 68.5212C353.776 67.9781 353.728 67.4487 353.632 66.9331C353.535 66.3625 353.384 65.8056 353.185 65.2694L353.006 64.7881H334.726L334.547 65.2694C334.347 65.8125 334.203 66.3625 334.1 66.9331C334.004 67.4968 333.949 68.0675 333.949 68.6518C333.949 71.388 335.056 73.8699 336.85 75.6642C338.644 77.4586 341.119 78.5654 343.862 78.5654C346.605 78.5654 349.08 77.4586 350.875 75.6642C352.133 74.413 353.047 72.818 353.487 71.0374C353.9 70.3224 354.484 69.7381 355.178 69.3393C355.873 68.9337 356.677 68.7137 357.509 68.7137C358.52 68.7137 359.475 69.0368 360.245 69.6006C360.933 70.1024 361.49 70.7968 361.813 71.6218C362.294 73.1618 363.146 74.5436 364.26 75.6574C366.055 77.4517 368.53 78.5586 371.273 78.5586C374.016 78.5586 376.491 77.4517 378.285 75.6574C380.079 73.863 381.186 71.388 381.186 68.6449C381.186 68.0606 381.131 67.4831 381.035 66.9262C380.939 66.3556 380.788 65.7987 380.588 65.2625L380.409 64.7812H362.129L361.95 65.2625H361.964ZM363.325 71.4912C363.298 71.4087 363.27 71.333 363.243 71.2505C362.975 70.4324 362.837 69.5593 362.837 68.6518C362.837 68.15 362.878 67.655 362.961 67.1806C363.016 66.8643 363.091 66.5481 363.181 66.2456H379.385C379.474 66.5481 379.55 66.8575 379.605 67.1806C379.687 67.655 379.729 68.1431 379.729 68.6518C379.729 70.9824 378.78 73.093 377.254 74.6261C375.728 76.1524 373.617 77.1011 371.279 77.1011C368.942 77.1011 366.838 76.1524 365.305 74.6261C364.432 73.753 363.745 72.6874 363.318 71.4912H363.325ZM335.544 67.1806C335.599 66.8643 335.674 66.5481 335.764 66.2456H351.968C352.057 66.5481 352.133 66.8575 352.188 67.1806C352.27 67.655 352.312 68.1431 352.312 68.6518C352.312 70.9824 351.363 73.093 349.837 74.6261C348.31 76.1524 346.2 77.1011 343.862 77.1011C341.525 77.1011 339.421 76.1524 337.888 74.6261C336.362 73.0999 335.413 70.9893 335.413 68.6518C335.413 68.15 335.454 67.655 335.537 67.1806H335.544Z" fill="black"/>
<path fill-rule="evenodd" clip-rule="evenodd" d="M363.47 105.797C358.541 107.715 356.994 112.857 356.994 115.03C356.994 112.857 355.756 108.588 350.518 109.207L363.463 105.797H363.47Z" fill="#CCCCCC"/>
<path fill-rule="evenodd" clip-rule="evenodd" d="M339.703 100.759C339.703 96.7645 347.279 93.5195 356.615 93.5195C365.209 93.5195 370.331 95.8158 373.418 99.9338C366.735 93.5195 352.456 95.142 346.901 99.2051C341.346 103.268 339.696 100.759 339.696 100.759H339.703Z" fill="white"/>
<path fill-rule="evenodd" clip-rule="evenodd" d="M373.143 99.5694C373.239 99.6863 373.329 99.81 373.425 99.9269C366.742 93.5126 352.463 95.1351 346.908 99.1982C342.646 102.319 340.68 101.563 339.999 101.048C345.306 95.6438 363.085 90.7214 373.143 99.5694Z" fill="#A80403"/>
<path fill-rule="evenodd" clip-rule="evenodd" d="M349.417 100.953C349.417 100.953 338.486 106.556 337.228 102.074C335.53 104.308 340.803 108.062 349.417 100.953Z" fill="#CCCCCC"/>
</g>
<defs>
<clipPath id="clip0_7086_27324">
<rect width="712" height="381.138" fill="white"/>
</clipPath>
</defs>
</svg>
